<?xml version="1.0" encoding="utf-8"?>
<!-- Svg Vector Icons : http://www.onlinewebfonts.com/icon -->
<!DOCTYPE svg PUBLIC "-//W3C//DTD SVG 1.1//EN" "http://www.w3.org/Graphics/SVG/1.1/DTD/svg11.dtd">
<svg version="1.1" xmlns="http://www.w3.org/2000/svg" xmlns:xlink="http://www.w3.org/1999/xlink" x="0px" y="0px" viewBox="0 0 1000 1000" enable-background="new 0 0 1000 1000" xml:space="preserve">
<metadata> Svg Vector Icons : http://www.onlinewebfonts.com/icon </metadata>
<g><path style="fill: rgb(255, 0, 0);" d="M920,428.3H249.3L550,128.5c27.3-27.3,27.3-71.2,0-98.5c-27.3-27.3-71.6-27.1-99,0.2c0,0-418.6,418-420.6,420C16.7,464,9.9,482.1,10,500.1c-0.1,18,6.7,36.1,20.5,49.9c2,2,420.6,419.9,420.6,419.9c27.3,27.3,71.6,27.3,99,0c27.3-27.3,27.3-72.7,0-100L249.3,568.1H920c38.6,0,70-31.3,70-69.9C990,459.5,958.7,428.3,920,428.3z"/></g>
</svg>