<?xml version="1.0" encoding="utf-8"?>
<!DOCTYPE svg PUBLIC "-//W3C//DTD SVG 1.1//EN" "http://www.w3.org/Graphics/SVG/1.1/DTD/svg11.dtd">
<svg version="1.1" xmlns="http://www.w3.org/2000/svg" xmlns:xlink="http://www.w3.org/1999/xlink" x="0px" y="0px" viewBox="0 0 1000 1000" enable-background="new 0 0 1000 1000" xml:space="preserve">
<metadata> Svg Vector Icons : http://www.onlinewebfonts.com/icon </metadata>
<g><g><path style="fill: rgb(204, 204, 204);" d="M394.2,978.5c6.1-10.7,39.1-68.2,98.9-172.5c59.8-104.3,105.8-183.3,138-236.9l179.4,310.6C720.1,953.2,616.6,990,500,990C467.8,990,432.5,986.2,394.2,978.5z M30.7,647.2h476.2L325.2,957.8c-70.5-26.1-131.5-66.3-182.9-120.8S53.7,719.3,30.7,647.2z M138.8,168.7l248.5,430.2H19.2C13.1,569.8,10,536.8,10,500C10,372.7,52.9,262.3,138.8,168.7z M980.8,401.1c6.1,29.1,9.2,62.1,9.2,98.9c0,127.3-42.9,237.7-128.8,331.3L626.5,426.4l-13.8-25.3H980.8z M969.3,352.8H493.1L674.8,42.2c70.5,26.1,131.5,66.3,182.9,120.8C909.1,217.4,946.3,280.7,969.3,352.8z M373.5,426.4l-4.6,4.6L189.4,120.4C279.9,46.8,383.4,10,500,10c32.2,0,67.5,3.8,105.8,11.5L373.5,426.4z"/></g></g>
</svg>