<?xml version="1.0" encoding="utf-8"?>
<!-- Svg Vector Icons : http://www.onlinewebfonts.com/icon -->
<!DOCTYPE svg PUBLIC "-//W3C//DTD SVG 1.1//EN" "http://www.w3.org/Graphics/SVG/1.1/DTD/svg11.dtd">
<svg version="1.1" xmlns="http://www.w3.org/2000/svg" xmlns:xlink="http://www.w3.org/1999/xlink" x="0px" y="0px" viewBox="0 0 1000 1000" enable-background="new 0 0 1000 1000" xml:space="preserve">
<metadata> Svg Vector Icons : http://www.onlinewebfonts.com/icon </metadata>
<g><g transform="translate(0.000000,511.000000) scale(0.100000,-0.100000)"><path style="fill: rgb(255, 75, 75);" d="M4685.8,5018.8c-1447.3-144.7-2634-772.6-3500.1-1854.7l-80.1-100.2l725.8-1242.4L2555,581.3l40.1,149.2c211.5,828.3,877.3,1514.1,1698.9,1752.3c420.8,122.5,904,131.4,1315.9,26.7l222.7-57.9h1776.8c1523,0,1776.8,4.5,1767.9,31.2c-24.5,64.6-242.7,398.6-360.7,556.6C8395.2,3867.7,7553.6,4468.8,6576.2,4785C5979.4,4978.7,5220.2,5072.2,4685.8,5018.8z"/><path style="fill: rgb(104, 247, 104);" d="M637.9,2369.2C370.8,1841.5,206,1322.7,134.8,763.9C94.7,447.7,88-184.7,121.4-465.2c238.2-1921.5,1523-3500.1,3344.3-4108c302.8-100.2,877.3-227.1,932.9-207.1c31.2,11.1,1500.7,2551.6,1485.1,2567.2c-4.5,4.5-89.1-15.6-189.2-44.5c-603.4-175.9-1224.6-118-1799.1,164.8C3263.1-1781.1,2791-1215.6,2615.1-565.4c-26.7,98-73.5,229.3-104.7,289.5C2399.1-57.8,825,2674.2,809.4,2674.2C802.7,2674.2,724.8,2536.2,637.9,2369.2z"/><path style="fill: rgb(71, 157, 255);" d="M4763.7,2139.9c-739.2-104.7-1351.5-576.7-1620.9-1249.1C3035.9,625.8,3007,461,3009.2,136c0-351.8,44.5-547.7,187-843.9c454.2-953,1563-1387.1,2560.5-1001.9c334,129.1,705.8,423,910.7,719.2c271.7,396.3,403,953,336.2,1416.1c-140.3,961.9-924,1669.9-1901.5,1723.3C4988.6,2153.2,4837.2,2151,4763.7,2139.9z"/><path style="fill: rgb(246, 255, 122);" d="M7929.9,2057.5l-1373.8-6.7l173.7-173.7c369.6-365.2,612.3-812.7,705.8-1300.3c44.5-240.5,44.5-685.8,0-926.2c-91.3-480.9-336.2-937.4-692.4-1289.2c-151.4-149.2-207.1-238.2-1002-1614.2c-463.1-799.3-857.2-1478.4-875-1507.4l-33.4-53.4l307.3,13.3c1295.8,62.3,2424.7,556.6,3319.8,1451.7c396.3,394.1,674.6,781.5,930.7,1293.6c605.6,1209,674.6,2678.5,189.3,3956.6l-64.6,171.5l-104.6-4.5C9352.7,2064.2,8686.9,2059.7,7929.9,2057.5z"/></g></g>
</svg>