<?xml version="1.0" encoding="utf-8"?>
<!-- Svg Vector Icons : http://www.onlinewebfonts.com/icon -->
<!DOCTYPE svg PUBLIC "-//W3C//DTD SVG 1.1//EN" "http://www.w3.org/Graphics/SVG/1.1/DTD/svg11.dtd">
<svg version="1.1" xmlns="http://www.w3.org/2000/svg" xmlns:xlink="http://www.w3.org/1999/xlink" x="0px" y="0px" viewBox="0 0 1000 1000" enable-background="new 0 0 1000 1000" xml:space="preserve">
<metadata> Svg Vector Icons : http://www.onlinewebfonts.com/icon </metadata>
<g><path style="fill: rgb(0, 0, 0);" d="M109.1,400.8C54.4,400.8,10,445.2,10,500c0,54.8,44.4,99.2,99.1,99.2c54.8,0,99.2-44.4,99.2-99.2C208.3,445.2,163.9,400.8,109.1,400.8z"/><path style="fill: rgb(0, 0, 0);" d="M499.7,400.8c-54.8,0-99.1,44.4-99.1,99.2c0,54.8,44.4,99.2,99.1,99.2c54.8,0,99.2-44.4,99.2-99.2C598.9,445.2,554.5,400.8,499.7,400.8z"/><path style="fill: rgb(0, 0, 0);" d="M890.8,400.8c-54.8,0-99.1,44.4-99.1,99.2c0,54.8,44.4,99.2,99.1,99.2c54.8,0,99.2-44.4,99.2-99.2C990,445.2,945.6,400.8,890.8,400.8z"/></g>
</svg>