<?xml version="1.0" encoding="utf-8"?>
<!-- Svg Vector Icons : http://www.onlinewebfonts.com/icon -->
<!DOCTYPE svg PUBLIC "-//W3C//DTD SVG 1.1//EN" "http://www.w3.org/Graphics/SVG/1.1/DTD/svg11.dtd">
<svg version="1.1" xmlns="http://www.w3.org/2000/svg" xmlns:xlink="http://www.w3.org/1999/xlink" x="0px" y="0px" viewBox="0 0 1000 1000" enable-background="new 0 0 1000 1000" xml:space="preserve">
<metadata> Svg Vector Icons : http://www.onlinewebfonts.com/icon </metadata>
<g><path style="fill: rgb(62, 129, 255);" d="M522.8,990c65.3,0,126.9,0,152.8,0v0.1C649.6,990,588.1,990,522.8,990L522.8,990z M252.5,10.5c-22,0.4-44.2,1.8-64.1,5.6c-21.6,4.1-41.3,9.6-61.1,19.6c-20,10.1-37.2,24-52.6,39.1c-15,15.4-28.9,32.7-39.1,52.6c-10,19.7-15.5,39.3-19.6,61.1c-3.7,19.9-5.2,42.1-5.6,64.1c-0.1,5-0.1,9.6-0.2,16.7L10,700c0,5.5,0.1,11.4,0.1,17.9c0.2,15.6,0.3,22,0.4,29.4c0.4,22,1.8,44.2,5.6,64.1c1.8,9.5,3.8,18.6,6.4,27.4c3.4,11.4,7.6,22.5,13.2,33.6c10.1,20,24,37.2,39.1,52.6c15.4,15,32.7,28.9,52.6,39.1c19.7,10,39.3,15.5,61.1,19.6c19.9,3.7,42.1,5.2,64.1,5.6c7.4,0.1,13.8,0.2,29.4,0.4c14.8,0.1,27,0.2,36,0.2c25,0,118.2,0,204.8,0v-380H399.5V467.7h122.3V335.5c0-101.6,78.5-174.3,179.9-174.3l131.3,2.9v136.5H732.8c-29,0-52.5,32.1-52.5,61.2v106h148L807.2,610H675.6v380c2.4,0,4.6,0,6.3,0c9,0,21.2-0.1,36-0.2c12.3-0.1,19-0.2,24.8-0.2c1.5,0,3.1,0,4.7-0.1c22-0.4,44.2-1.8,64.1-5.6c21.6-4.1,41.3-9.6,61.1-19.6c20-10.1,37.2-24,52.6-39.1c15-15.4,28.9-32.7,39.1-52.6c10-19.7,15.5-39.3,19.6-61.1c3.7-19.9,5.2-42.1,5.6-64.1c0.1-7.4,0.2-13.8,0.4-29.4c0.1-14.8,0.2-27,0.2-36v-364c0-3.1,0-6.6,0-10.4c0-7.3-0.1-15.9-0.2-25.7c-0.2-15.6-0.3-22-0.4-29.4c-0.4-22-1.8-44.2-5.6-64.1c-4.1-21.6-9.6-41.3-19.6-61.1c-10.1-20-24-37.2-39.1-52.6c-15.4-15-32.7-28.9-52.6-39.1c-19.7-10-39.3-15.5-61.1-19.6c-19.9-3.7-42.1-5.2-64.1-5.6c-7.4-0.1-13.8-0.2-29.4-0.4C703.1,10,690.9,10,681.9,10h-364c-9,0-21.2,0.1-36,0.2C266.3,10.3,259.9,10.4,252.5,10.5z"/></g>
</svg>