<?xml version="1.0" encoding="utf-8"?>
<!-- Svg Vector Icons : http://www.onlinewebfonts.com/icon -->
<!DOCTYPE svg PUBLIC "-//W3C//DTD SVG 1.1//EN" "http://www.w3.org/Graphics/SVG/1.1/DTD/svg11.dtd">
<svg version="1.1" xmlns="http://www.w3.org/2000/svg" xmlns:xlink="http://www.w3.org/1999/xlink" x="0px" y="0px" viewBox="0 0 1000 1000" enable-background="new 0 0 1000 1000" xml:space="preserve">
<metadata> Svg Vector Icons : http://www.onlinewebfonts.com/icon </metadata>
<g><g transform="translate(0.000000,511.000000) scale(0.100000,-0.100000)"><path style="fill: rgb(200, 255, 0);" d="M1146.2,4578.3c-241.8-47.9-459.6-227.4-577-474c-59.8-131.7-62.2-148.4-69.4-691.9l-9.6-557.8l-129.3-122.1c-71.8-67-158-181.9-193.9-256.2l-67-134.1V-709.9v-3052.3l62.2-134c88.6-189.1,215.5-318.4,399.8-409.4l160.4-79h4273.2h4273.2l160.4,79c184.3,91,311.2,220.3,399.8,409.4l62.2,134l7.2,2980.5c4.8,2078-2.4,3018.8-19.1,3105c-31.1,148.4-177.2,375.8-299.2,462c-64.6,45.5-83.8,76.6-83.8,136.5c0,119.7-47.9,320.8-100.6,423.7c-74.2,143.6-263.3,313.6-418.9,378.3l-138.8,55.1l-1735.6,12l-1735.6,12l-598.5,402.2l-598.5,399.8l-1460.3-2.4C1907.5,4599.9,1203.6,4590.3,1146.2,4578.3z M8787.7,3359.8c76.6-12,184.3-43.1,239.4-71.8c112.5-52.7,289.7-217.9,339.9-318.4c35.9-64.6,35.9-67-31.1-47.9c-88.6,23.9-8592,23.9-8680.6,0l-67-19.2l35.9,69.4c93.4,181.9,337.6,349.5,557.8,387.8C1349.7,3386.2,8615.4,3388.5,8787.7,3359.8z M6053.8,2079c47.9-26.3,337.5-292.1,646.4-591.3c486-469.2,572.1-562.6,644-703.8l81.4-162.8l7.2-1771.6l4.8-1769.1l-59.9-88.6c-114.9-165.2,21.6-155.6-2188.1-155.6c-2219.2,0-2044.4-12-2171.3,158l-57.5,79v2446.6v2446.7l64.6,76.6c33.5,43.1,81.4,83.8,105.3,91c23.9,9.6,670.3,12,1438.8,4.8C5907.8,2126.9,5970,2124.5,6053.8,2079z"/><path style="fill: rgb(255, 255, 255);" d="M3367.8-506.5v-2238.4h1831.4h1831.4v1424.4V104h-682.3c-763.7,0-770.9,2.4-881,160.4l-64.6,93.4v687.1v687.1H4385.2H3367.8V-506.5z M6618.8-480.1c4.8-134,0-167.6-35.9-196.3c-62.2-47.9-2702.8-47.9-2765,0c-33.5,23.9-43.1,67-43.1,186.7c0,86.2,7.2,162.8,16.8,170c7.2,9.6,646.4,14.4,1417.2,12l1402.9-7.2L6618.8-480.1z M6618.8-1294.1c4.8-134.1,0-167.6-35.9-196.3c-62.2-47.9-2702.8-47.9-2765,0c-33.5,23.9-43.1,67-43.1,186.7c0,86.2,7.2,162.8,16.8,170c7.2,9.6,646.4,14.4,1417.2,12l1402.9-7.2L6618.8-1294.1z M6618.8-2105.6c4.8-100.5-4.8-177.2-21.5-198.7c-23.9-28.7-246.6-33.5-1395.7-33.5c-1034.2,0-1376.5,7.2-1398.1,28.7c-31.1,31.1-40.7,335.2-12,361.5c7.2,9.6,646.4,14.4,1417.2,12l1402.9-7.2L6618.8-2105.6z"/><path d="M5809.6,1121.5V511h600.9H7009l-16.7,55.1c-9.6,28.7-28.7,69.4-43.1,88.6C6891.7,736,5859.9,1731.9,5836,1731.9C5816.8,1731.9,5809.6,1552.4,5809.6,1121.5z"/></g></g>
</svg>