<?xml version="1.0" encoding="utf-8"?>
<!-- Svg Vector Icons : http://www.onlinewebfonts.com/icon -->
<!DOCTYPE svg PUBLIC "-//W3C//DTD SVG 1.1//EN" "http://www.w3.org/Graphics/SVG/1.1/DTD/svg11.dtd">
<svg version="1.1" xmlns="http://www.w3.org/2000/svg" xmlns:xlink="http://www.w3.org/1999/xlink" x="0px" y="0px" viewBox="0 0 1000 1000" enable-background="new 0 0 1000 1000" xml:space="preserve">
<metadata> Svg Vector Icons : http://www.onlinewebfonts.com/icon </metadata>
<g><path style="fill: rgb(2, 162, 255);" d="M863.5,38.5H136.5C66.6,38.5,10,92.7,10,159.5v680.9c0,66.9,56.6,121.1,126.5,121.1h727.1c69.8,0,126.5-54.2,126.5-121.1V159.5C990,92.7,933.4,38.5,863.5,38.5z M926.8,523.4L754.9,352.7L478.6,680.4L292.4,526.6L73.2,733.8V159.5c0-33.4,28.3-60.5,63.2-60.5h727.1c34.9,0,63.2,27.1,63.2,60.5L926.8,523.4L926.8,523.4z M247.5,174.5c-52,0-94.2,40.6-94.2,90.6c0,50.1,42.2,90.6,94.2,90.6c52,0,94.1-40.6,94.1-90.6C341.7,215,299.5,174.5,247.5,174.5z"/></g>
</svg>