<?xml version="1.0" encoding="utf-8"?>
<!-- Svg Vector Icons : http://www.onlinewebfonts.com/icon -->
<!DOCTYPE svg PUBLIC "-//W3C//DTD SVG 1.1//EN" "http://www.w3.org/Graphics/SVG/1.1/DTD/svg11.dtd">
<svg version="1.1" xmlns="http://www.w3.org/2000/svg" xmlns:xlink="http://www.w3.org/1999/xlink" x="0px" y="0px" viewBox="0 0 1000 1000" enable-background="new 0 0 1000 1000" xml:space="preserve">
<metadata> Svg Vector Icons : http://www.onlinewebfonts.com/icon </metadata>
<g><path style="fill: rgb(255, 0, 0);" d="M500,79.2C732,79.2,920.8,268,920.8,500c0,232-188.8,420.8-420.8,420.8C268,920.8,79.2,732,79.2,500C79.2,268,268,79.2,500,79.2 M500,10C229.4,10,10,229.4,10,500c0,270.6,219.4,490,490,490c270.6,0,490-219.4,490-490C990,229.4,770.6,10,500,10L500,10z"/><path style="fill: rgb(255, 0, 0);" d="M731.6,183.8L562.1,472.2h133.6v63.7H540v87.8h155.6v64.5H540v127.9H460V688.3H298.6v-64.5H460v-87.8H298.6v-63.7h137.7L268.4,183.8h90.3c78.4,143.2,126.1,234.1,143,272.5h1.6c5.7-15.8,21.4-47.7,47-95.6l96-176.9H731.6z"/></g>
</svg>