<?xml version="1.0" encoding="utf-8"?>
<!-- Svg Vector Icons : http://www.onlinewebfonts.com/icon -->
<!DOCTYPE svg PUBLIC "-//W3C//DTD SVG 1.1//EN" "http://www.w3.org/Graphics/SVG/1.1/DTD/svg11.dtd">
<svg version="1.1" xmlns="http://www.w3.org/2000/svg" xmlns:xlink="http://www.w3.org/1999/xlink" x="0px" y="0px" viewBox="0 0 1000 1000" enable-background="new 0 0 1000 1000" xml:space="preserve">
<metadata> Svg Vector Icons : http://www.onlinewebfonts.com/icon </metadata>
<g><path style="fill: rgb(255, 0, 0);" d="M825.4,10H174.6C84.1,10,10,84.1,10,174.6v650.8C10,915.9,84.1,990,174.6,990h650.8c90.5,0,164.6-74.1,164.6-164.6V174.6C990,84.1,915.9,10,825.4,10z M724.4,738.2c-169.9,0-228.9-76.6-260.3-171.9l-31.4-98.2c-23.6-71.7-51.1-127.7-137.5-127.7c-59.9,0-120.8,43.2-120.8,164c0,94.3,48.1,153.2,115.9,153.2c76.6,0,127.7-57,127.7-57l31.4,85.5c0,0-53.1,52.1-164,52.1c-137.5,0-214.1-80.5-214.1-229.8c0-155.2,76.6-246.5,221-246.5c130.6,0,196.5,47.1,237.7,174.8l32.4,98.2c23.6,71.7,64.8,123.8,164,123.8c66.8,0,102.2-14.7,102.2-51.1c0-28.5-16.7-49.1-66.8-60.9L695,530.9c-81.5-19.6-113.9-61.9-113.9-128.7c0-107.1,86.4-140.5,174.8-140.5c100.2,0,161.1,36.3,168.9,124.7l-98.2,11.8c-3.9-42.2-29.5-59.9-76.6-59.9c-43.2,0-69.7,19.6-69.7,53c0,29.5,12.8,47.1,56,57l62.9,13.8c84.5,19.6,129.7,60.9,129.7,140.5C928.8,700.9,846.3,738.2,724.4,738.2L724.4,738.2z"/></g>
</svg>