<?xml version="1.0" encoding="utf-8"?>
<!-- Svg Vector Icons : http://www.onlinewebfonts.com/icon -->
<!DOCTYPE svg PUBLIC "-//W3C//DTD SVG 1.1//EN" "http://www.w3.org/Graphics/SVG/1.1/DTD/svg11.dtd">
<svg version="1.1" xmlns="http://www.w3.org/2000/svg" xmlns:xlink="http://www.w3.org/1999/xlink" x="0px" y="0px" viewBox="0 0 1000 1000" enable-background="new 0 0 1000 1000" xml:space="preserve">
<metadata> Svg Vector Icons : http://www.onlinewebfonts.com/icon </metadata>
<g><path style="fill: rgb(255, 0, 0);" d="M312.1,823.6c-12.1,0-22.2-9.6-22.2-22.1c0-12.5,10.2-22.9,22.2-22.9h533.2c12.9,0,22.7,10.4,22.7,22.9c0,12.5-9.9,22.1-22.7,22.1H312.1L312.1,823.6z M312.3,167.3L312.3,167.3c-12.3,0-22.5,10.4-22.5,22.7v0.7v158c0,12.8,10.2,22.9,22.5,22.9h0.5h532h0.5c12.9,0,22.7-10.1,22.7-22.9V190.6v-0.7c0-12.3-9.9-22.7-22.7-22.7L312.3,167.3L312.3,167.3z M334.8,326.3L334.8,326.3V212.5h488.1v113.7H334.8L334.8,326.3z M168,319.5L168,319.5H85.4V846c0,52,82.6,53.2,82.6,0V319.5L168,319.5z M126.8,962.4L126.8,962.4c-32,0-60.9-13.5-82.3-33.9v-0.5C23.1,906.7,10,878,10,846V282.7v-1c0-20.5,16.8-38.1,37.7-38.1H168V75.7c0-21.5,16.5-38.1,37.4-38.1h1.1h745.9c20.9,0,37.7,16.6,37.7,38.1v0.7V846c0,32-13.1,60.7-33.9,82.4l-1.1,0.5c-20.9,20.5-49.7,33.5-81.3,33.5H128.4H128H126.8L126.8,962.4z M914.6,846L914.6,846V113H243.4c0,244.3,0,488.6,0,733c0,14.2-2.9,28.2-7.5,41h637.8c11.3,0,21.5-5,28.7-12.1l0.2-0.2C910.1,867.2,914.6,857.3,914.6,846L914.6,846z M604.3,416.9L604.3,416.9h0.5h240.6c12.9,0,22.7,10.6,22.7,22.1v1.2v120c0,12.3-9.9,22.7-22.7,22.7h-0.5H604.3c-12.3,0-22.7-10.4-22.7-22.7v-0.7V439.1C581.5,427.5,592,416.9,604.3,416.9L604.3,416.9z M822.9,461.9L822.9,461.9H626.7v75.6h196.2V461.9L822.9,461.9z M312.1,462.2L312.1,462.2c-12.1,0-22.2-10.1-22.2-23.1c0-11.6,10.2-22.1,22.2-22.1h220c12.3,0,22.4,10.6,22.4,22.1c0,13-10.1,23.1-22.4,23.1H312.1L312.1,462.2z M312.1,582.9L312.1,582.9c-12.1,0-22.2-10.4-22.2-22.7c0-12.8,10.2-22.7,22.2-22.7h220c12.3,0,22.4,9.9,22.4,22.7c0,12.3-10.1,22.7-22.4,22.7H312.1L312.1,582.9z M312.1,703.8L312.1,703.8c-12.1,0-22.2-10.4-22.2-23.3c0-12.3,10.2-22.1,22.2-22.1h533.2c12.9,0,22.7,9.8,22.7,22.1c0,13-9.9,23.3-22.7,23.3H312.1L312.1,703.8z"/></g>
</svg>