<?xml version="1.0" encoding="utf-8"?>
<!-- Svg Vector Icons : http://www.onlinewebfonts.com/icon -->
<!DOCTYPE svg PUBLIC "-//W3C//DTD SVG 1.1//EN" "http://www.w3.org/Graphics/SVG/1.1/DTD/svg11.dtd">
<svg version="1.1" xmlns="http://www.w3.org/2000/svg" xmlns:xlink="http://www.w3.org/1999/xlink" x="0px" y="0px" viewBox="0 0 1000 1000" enable-background="new 0 0 1000 1000" xml:space="preserve">
<metadata> Svg Vector Icons : http://www.onlinewebfonts.com/icon </metadata>
<g><g transform="translate(0.000000,511.000000) scale(0.100000,-0.100000)"><path style="fill: rgb(255, 0, 0);" d="M363.9,4981.8c-108.3-38.3-191.7-112.8-232.3-207.5c-27.1-60.9-31.6-762.3-31.6-4251.6v-4179.4l570.6-570.6l568.4-568.4h586.4h588.7l144.3,146.6l144.4,146.6h2878h2878l144.4-146.6l144.4-146.6h430.8H9609l101.5,65.4c60.9,38.3,119.6,99.2,146.6,151.1c42.9,85.7,42.9,191.7,42.9,4689.1c0,4303.4-2.2,4605.7-38.3,4671.1c-51.9,97-160.1,182.7-261.6,212c-56.4,15.8-1565.3,22.6-4616.9,22.6C1202.9,5013.4,436.1,5008.9,363.9,4981.8z M8174.6,2410.6V391.9H4994.4H1814.2v2018.6v2018.6h3180.2h3180.2V2410.6z M1227.7,3842.8v-293.2H945.8H663.9v293.2V4136h281.9h281.9V3842.8z M9324.9,3854.1v-281.9h-293.2h-293.2v281.9V4136h293.2h293.2V3854.1z M7294.9-2777v-1161.6H5851.4H4407.9v868.4v868.3H4126h-281.9v-868.3v-868.4h-575.1h-575.1V-2777v1161.6h2300.6h2300.6V-2777z M8936.9-2817.6c4.5-223.3,9-241.3,49.6-241.3c24.8,0,45.1-4.5,45.1-13.5c0-45.1-214.3-548.1-227.8-534.6c-22.5,24.8-200.7,482.7-200.7,521c0,13.6,20.3,27.1,45.1,27.1c42.9,0,45.1,15.8,45.1,232.3c0,128.6,4.5,239.1,9,243.6c6.8,6.8,60.9,9,119.5,9l108.3-2.2L8936.9-2817.6z"/></g></g>
</svg>