<?xml version="1.0" encoding="utf-8"?>
<!-- Svg Vector Icons : http://www.onlinewebfonts.com/icon -->
<!DOCTYPE svg PUBLIC "-//W3C//DTD SVG 1.1//EN" "http://www.w3.org/Graphics/SVG/1.1/DTD/svg11.dtd">
<svg version="1.1" xmlns="http://www.w3.org/2000/svg" xmlns:xlink="http://www.w3.org/1999/xlink" x="0px" y="0px" viewBox="0 0 1000 1000" enable-background="new 0 0 1000 1000" xml:space="preserve">
<metadata> Svg Vector Icons : http://www.onlinewebfonts.com/icon </metadata>
<g><path style="fill: rgb(255, 0, 0);" d="M694.3,636.8h82.5v60h-75c-4.2,0-7.5-3.3-7.5-7.5V636.8z M226.3,696.8h75c4.1,0,7.5-3.3,7.5-7.5v-52.5h-82.5V696.8z M301.3,561.8h-75v60h82.5v-52.5C308.8,565.2,305.4,561.8,301.3,561.8z M128.8,689.3c0,4.2,3.3,7.5,7.5,7.5h75v-60h-82.5L128.8,689.3L128.8,689.3z M128.8,569.3v52.5h82.5v-60h-75C132.1,561.8,128.8,565.2,128.8,569.3z M791.8,696.8h75c4.2,0,7.5-3.3,7.5-7.5v-52.5h-82.5V696.8z M694.3,569.3v52.5h82.5v-60h-75C697.6,561.8,694.3,565.2,694.3,569.3z M866.8,561.8h-75v60h82.5v-52.5C874.3,565.2,871,561.8,866.8,561.8z M933.7,485.7c0-2.8-2.5-5.1-5.5-5.1h-1.6L538.8,109.5c-21.2-20.3-55.9-20.3-77.1,0l-388,371.3c-2.5,0.5-4.3,2.5-4.3,4.9v503.7c0,0.2,0.1,0.3,0.1,0.5h327.1V660.9c0-4.1,3.4-7.5,7.5-7.5h195c4.1,0,7.5,3.4,7.5,7.5V990h327.1c0-0.2,0.1-0.3,0.1-0.5L933.7,485.7L933.7,485.7z M62.2,460.3h3.7L461.4,81.8c21.2-20.3,55.9-20.3,77.1,0l395.6,378.5h3.7c30.5,0,38.1-16.6,16.9-36.9L538.6,25.2c-21.2-20.3-55.9-20.3-77.1,0L45.3,423.4C24.1,443.7,31.7,460.3,62.2,460.3z"/></g>
</svg>