<?xml version="1.0" encoding="utf-8"?>
<!-- Svg Vector Icons : http://www.onlinewebfonts.com/icon -->
<!DOCTYPE svg PUBLIC "-//W3C//DTD SVG 1.1//EN" "http://www.w3.org/Graphics/SVG/1.1/DTD/svg11.dtd">
<svg version="1.1" xmlns="http://www.w3.org/2000/svg" xmlns:xlink="http://www.w3.org/1999/xlink" x="0px" y="0px" viewBox="0 0 1000 1000" enable-background="new 0 0 1000 1000" xml:space="preserve">
<metadata> Svg Vector Icons : http://www.onlinewebfonts.com/icon </metadata>
<g><path d="M959.1,425.3"/><path style="fill: rgb(0, 0, 0);" d="M504.3,995.2c-106.3,0-209.3-34.1-295.9-98.9C102.6,817,33.9,701.2,15.1,570.3c-18.8-131,14.5-261.4,93.8-367.3C272.7-15.6,583.7-60.2,802.3,103.4C893.9,172,959.3,271,986.4,382c4.6,19-7,38.1-26,42.8c-19,4.5-38.1-7-42.8-26c-23.2-95.1-79.2-179.9-157.8-238.8C572.6,19.8,306,58,165.6,245.4c-68,90.7-96.5,202.5-80.4,314.8c16.1,112.3,75,211.5,165.7,279.4c187.4,140.4,454,102.1,594.3-85.3c36.7-49.1,61.9-104,74.8-163.4c4.2-19.1,23.1-31.2,42.1-27.1c19.1,4.1,31.2,23,27.1,42.1c-15.1,69.4-44.5,133.6-87.3,190.9c-79.3,105.8-195.1,174.5-326.1,193.3C551.9,993.5,528,995.2,504.3,995.2z"/></g>
</svg>