<?xml version="1.0" encoding="utf-8"?>
<!-- Svg Vector Icons : http://www.onlinewebfonts.com/icon -->
<!DOCTYPE svg PUBLIC "-//W3C//DTD SVG 1.1//EN" "http://www.w3.org/Graphics/SVG/1.1/DTD/svg11.dtd">
<svg version="1.1" xmlns="http://www.w3.org/2000/svg" xmlns:xlink="http://www.w3.org/1999/xlink" x="0px" y="0px" viewBox="0 0 1000 1000" enable-background="new 0 0 1000 1000" xml:space="preserve">
<metadata> Svg Vector Icons : http://www.onlinewebfonts.com/icon </metadata>
<g><path style="fill: rgb(190, 190, 190);" d="M306.6,402V285.4c0-119.6,72.3-216.6,191.9-216.6c119.6,0,191.9,97,191.9,216.6V402h53.1c3.3,0,6.5,0.4,9.8,0.5V264.8c0-140.7-114-254.8-254.8-254.8c-140.7,0-254.8,114.1-254.8,254.8V402H306.6z"/><path style="fill: rgb(190, 190, 190);" d="M914.6,388.4c0-21.6-17.6-39.2-39.2-39.2H124.6c-21.7,0-39.2,17.6-39.2,39.2v562.4c0,21.6,17.6,39.2,39.2,39.2h750.8c21.7,0,39.2-17.6,39.2-39.2V388.4z M537.7,646.1V814c0,21.6-16,39.2-37.7,39.2c-21.6,0-37.7-17.5-37.7-39.2V646.1c-37.7-13.5-42.3-38.6-42.3-67.5c0-43.3,33.5-78.4,76.9-78.4c43.3,0,79.3,35.1,79.3,78.4C576.1,607.5,575.4,632.5,537.7,646.1z"/></g>
</svg>