<?xml version="1.0" encoding="utf-8"?>
<!-- Svg Vector Icons : http://www.onlinewebfonts.com/icon -->
<!DOCTYPE svg PUBLIC "-//W3C//DTD SVG 1.1//EN" "http://www.w3.org/Graphics/SVG/1.1/DTD/svg11.dtd">
<svg version="1.1" xmlns="http://www.w3.org/2000/svg" xmlns:xlink="http://www.w3.org/1999/xlink" x="0px" y="0px" viewBox="0 0 1000 1000" enable-background="new 0 0 1000 1000" xml:space="preserve">
<metadata> Svg Vector Icons : http://www.onlinewebfonts.com/icon </metadata>
<g><path style="fill: rgb(240, 219, 30);" d="M901.6,86.4H98.4c-48.8,0-88.4,37.9-88.4,84.7v501.1c0,46.8,39.6,84.7,88.4,84.7h490L500,913.6L765.3,757h136.3c48.8,0,88.4-37.9,88.4-84.7V171.1C990,124.4,950.4,86.4,901.6,86.4z M306.6,482.5c-33.6,0-60.8-27.2-60.8-60.8c0-33.6,27.2-60.8,60.8-60.8s60.8,27.2,60.8,60.8C367.4,455.3,340.2,482.5,306.6,482.5z M477.9,482.5c-33.6,0-60.8-27.2-60.8-60.8c0-33.6,27.2-60.8,60.8-60.8c33.6,0,60.8,27.2,60.8,60.8C538.7,455.3,511.5,482.5,477.9,482.5z M649.2,482.5c-33.6,0-60.8-27.2-60.8-60.8c0-33.6,27.2-60.8,60.8-60.8c33.6,0,60.8,27.2,60.8,60.8C710,455.3,682.8,482.5,649.2,482.5z"/></g>
</svg>