<?xml version="1.0" encoding="utf-8"?>
<!-- Svg Vector Icons : http://www.onlinewebfonts.com/icon -->
<!DOCTYPE svg PUBLIC "-//W3C//DTD SVG 1.1//EN" "http://www.w3.org/Graphics/SVG/1.1/DTD/svg11.dtd">
<svg version="1.1" xmlns="http://www.w3.org/2000/svg" xmlns:xlink="http://www.w3.org/1999/xlink" x="0px" y="0px" viewBox="0 0 1000 1000" enable-background="new 0 0 1000 1000" xml:space="preserve">
<metadata> Svg Vector Icons : http://www.onlinewebfonts.com/icon </metadata>
<g><path style="fill: rgb(41, 80, 255);" d="M500,10C229.4,10,10,229.4,10,500s219.4,490,490,490c270.6,0,490-219.4,490-490S770.6,10,500,10z M500,892c-216.5,0-392-175.5-392-392c0-216.5,175.5-392,392-392s392,175.5,392,392C892,716.5,716.5,892,500,892z"/><path style="fill: rgb(41, 80, 255);" d="M688.7,469.2L434.7,322.5c-23.7-13.7-53.4,3.4-53.4,30.8v293.4c0,27.4,29.7,44.5,53.4,30.8l254.1-146.7C712.5,517.1,712.5,482.9,688.7,469.2z"/></g>
</svg>