<?xml version="1.0" encoding="utf-8"?>
<!-- Svg Vector Icons : http://www.onlinewebfonts.com/icon -->
<!DOCTYPE svg PUBLIC "-//W3C//DTD SVG 1.1//EN" "http://www.w3.org/Graphics/SVG/1.1/DTD/svg11.dtd">
<svg version="1.1" xmlns="http://www.w3.org/2000/svg" xmlns:xlink="http://www.w3.org/1999/xlink" x="0px" y="0px" viewBox="0 0 1000 1000" enable-background="new 0 0 1000 1000" xml:space="preserve">
<metadata> Svg Vector Icons : http://www.onlinewebfonts.com/icon </metadata>
<g><path style="fill: rgb(255, 255, 255);" d="M266.2,959.1c-4.7-1.9-9.3-4.3-14.2-5.6c-54.8-14.8-92.4-61.2-92.9-118.1c-0.8-95.9-0.4-191.9-0.3-287.8c0-23.1,11.7-37,29.9-36.7c18,0.3,30.3,14.8,30.4,37.3c0.2,89.9,0,179.9,0.1,269.8c0.1,56.8,22.4,79.1,78.6,79.1c135.7,0,271.3,0,407,0c53.1,0,76.2-23.2,76.3-76.9c0.2-88.4-0.1-176.9,0.2-265.3c0-8.8-0.8-20.8,4.2-25.6c8.7-8.3,21.9-17,32.8-16.6c14.9,0.6,23.5,13.5,23.4,30.4c-0.3,65.2-0.1,130.4-0.1,195.6c0,30,0.3,60-0.1,89.9c-0.7,64.4-35.6,108.9-97.7,125.6c-3.5,0.9-6.5,3.3-9.8,4.9C578,959.1,422.1,959.1,266.2,959.1z"/><path style="fill: rgb(255, 255, 255);" d="M493.8,106.7c-5.1,7.5-9.1,16-15.4,22.3C341,266,203.3,402.8,65.6,539.6c-18.8,18.7-26.7,19.2-43.1,3.2c-16.6-16.2-16.7-24.4-0.3-41.3c1.6-1.6,3.2-3.2,4.8-4.8C174.3,350.5,321.5,204.2,468.8,57.9c22.8-22.7,39.7-22.6,62.7,0.2c147.8,146.8,295.6,293.7,443.3,440.5c19.8,19.7,19.8,27,2.6,44.6c-14,14.4-26.6,13.9-40.2-0.5c-12.3-13.1-25.4-25.5-38.1-38.2C772.7,378.8,646.1,253.1,519.8,127.2c-5.7-5.7-8.9-14-13.2-21.1C502.3,106.3,498,106.5,493.8,106.7z"/></g>
</svg>