<?xml version="1.0" encoding="utf-8"?>
<!-- Svg Vector Icons : http://www.onlinewebfonts.com/icon -->
<!DOCTYPE svg PUBLIC "-//W3C//DTD SVG 1.1//EN" "http://www.w3.org/Graphics/SVG/1.1/DTD/svg11.dtd">
<svg version="1.1" xmlns="http://www.w3.org/2000/svg" xmlns:xlink="http://www.w3.org/1999/xlink" x="0px" y="0px" viewBox="0 0 1000 1000" enable-background="new 0 0 1000 1000" xml:space="preserve">
<metadata> Svg Vector Icons : http://www.onlinewebfonts.com/icon </metadata>
<g><path style="fill: rgba(0, 0, 0, 0.7);" d="M955.9,852.6L706.2,602.9c42.9-61.2,68.4-135.6,68.4-215.9c0-207.9-169.1-377-377-377s-377,169.1-377,377c0,207.9,169.1,377.1,377,377.1c69.5,0,134.4-19.2,190.4-52.1c0.4,0.5,0.7,1,1.2,1.4l252.9,252.9c15.7,15.7,36.3,23.6,56.9,23.6c20.6,0,41.2-7.9,56.9-23.6C987.3,934.9,987.3,884,955.9,852.6z M158.5,387c0-131.8,107.2-239.1,239.1-239.1c131.8,0,239.1,107.3,239.1,239.1c0,131.9-107.3,239.1-239.1,239.1C265.7,626.1,158.5,518.9,158.5,387z"/></g>
</svg>