<?xml version="1.0" encoding="utf-8"?>
<!-- Svg Vector Icons : http://www.onlinewebfonts.com/icon -->
<!DOCTYPE svg PUBLIC "-//W3C//DTD SVG 1.1//EN" "http://www.w3.org/Graphics/SVG/1.1/DTD/svg11.dtd">
<svg version="1.1" xmlns="http://www.w3.org/2000/svg" xmlns:xlink="http://www.w3.org/1999/xlink" x="0px" y="0px" viewBox="0 0 1000 1000" enable-background="new 0 0 1000 1000" xml:space="preserve">
<metadata> Svg Vector Icons : http://www.onlinewebfonts.com/icon </metadata>
<g><path style="fill: rgb(155, 155, 155);" d="M500,214.2c-157.9,0-285.8,128-285.8,285.8s128,285.8,285.8,285.8s285.8-128,285.8-285.8S657.9,214.2,500,214.2z M500,663.3c-90.2,0-163.3-73.1-163.3-163.3c0-90.2,73.1-163.3,163.3-163.3S663.3,409.8,663.3,500C663.3,590.2,590.2,663.3,500,663.3z"/><path style="fill: rgb(155, 155, 155);" d="M957.6,342.1c0,0,8-3.5-38.5-85.7c-46.4-82.2-53.3-77-53.3-77c-51,16.9-87.8,24.9-110.6,28.9c-37.4-32.7-81.1-58.3-129.1-74.9c-7.9-21.5-19.9-59-31.4-114.8c0,0,0.9-8.7-92.3-8.7C409,10,410,18.7,410,18.7c-11.1,53.9-22.7,90.9-30.6,112.8c-47.6,15.6-91.2,40-128.7,71.5c-22.6-4.5-59.2-13.3-109.8-31.2c0,0-6.9-5.3-54.9,75.9c-48.1,81.1-40.3,84.7-40.3,84.7c37.3,35,61.6,62.6,76.4,80.9c-6.4,27.9-10.1,56.9-10.1,86.8c0,27.1,2.8,53.4,8.1,79c-15.2,18-40.1,44.9-77.8,78.9c0,0-7.9,3.5,38.5,85.6c46.4,82.2,53.3,77,53.3,77c51.1-16.9,87.9-24.9,110.6-28.9c37.4,32.8,81.1,58.4,129.1,74.9c7.9,21.6,19.9,59,31.4,114.8c0,0-1,8.7,92.4,8.7c93.3,0,92.3-8.7,92.3-8.7c11.1-53.8,22.7-90.9,30.6-112.7c47.6-15.6,91.2-40,128.7-71.5c22.7,4.5,59.2,13.3,109.8,31.2c0,0,6.8,5.3,55-75.9c48.1-81.2,40.2-84.8,40.2-84.8c-37.3-35-61.6-62.6-76.4-80.9c6.4-28,10.1-57,10.1-86.8c0-27.1-2.8-53.4-8.1-79C895,403,919.8,376.1,957.6,342.1z M500,826.6c-180.4,0-326.7-146.3-326.7-326.7c0-180.4,146.3-326.7,326.7-326.7c180.4,0,326.7,146.3,326.7,326.7C826.6,680.4,680.4,826.6,500,826.6z"/></g>
</svg>