<?xml version="1.0" encoding="utf-8"?>
<!-- Svg Vector Icons : http://www.onlinewebfonts.com/icon -->
<!DOCTYPE svg PUBLIC "-//W3C//DTD SVG 1.1//EN" "http://www.w3.org/Graphics/SVG/1.1/DTD/svg11.dtd">
<svg version="1.1" xmlns="http://www.w3.org/2000/svg" xmlns:xlink="http://www.w3.org/1999/xlink" x="0px" y="0px" viewBox="0 0 1000 1000" enable-background="new 0 0 1000 1000" xml:space="preserve">
<metadata> Svg Vector Icons : http://www.onlinewebfonts.com/icon </metadata>
<g><path style="fill: rgb(255, 0, 0);" d="M980,304.1c0,0-9.6-67.6-39-97.2c-37.3-39-79.1-39.2-98.2-41.5c-137-10-342.8-10-342.8-10h-0.4c0,0-205.8,0-342.8,10c-19.1,2.3-60.9,2.5-98.2,41.5c-29.5,29.7-38.9,97.2-38.9,97.2S10,383.3,10,462.8V537c0,79.2,9.8,158.7,9.8,158.7s9.6,67.6,38.9,97.2c37.3,39,86.3,37.7,108.2,41.9c78.5,7.5,333.2,9.8,333.2,9.8s206-0.4,343-10.2c19.1-2.3,60.9-2.5,98.2-41.5c29.5-29.7,39-97.2,39-97.2s9.8-79.2,9.8-158.7v-74.3C989.8,383.6,980,304.1,980,304.1L980,304.1z M398.5,627.2V351.7l264.7,138.2L398.5,627.2L398.5,627.2z"/></g>
</svg>